<svg version="1.1" class="dotfiles-logo stacked" xmlns="http://www.w3.org/2000/svg" xmlns:xlink="http://www.w3.org/1999/xlink" x="0px" y="0px"
	 viewBox="0 0 77.453 123.929" enable-background="new 0 0 77.453 123.929" xml:space="preserve">
<g>
	<g>
		<path fill="#333333" d="M56.703,0H56.26H7.06C3.161,0,0,3.161,0,7.06v84.724c0,3.899,3.161,7.06,7.06,7.06h63.322
			c3.899,0,7.06-3.161,7.06-7.06V21.181V20.74L56.703,0z"/>
		<circle fill="#3FA9F5" cx="38.721" cy="49.422" r="10.59"/>
		<line fill="#1A1A1A" x1="77.443" y1="21.181" x2="56.262" y2="0"/>
		<path fill="#3FA9F5" d="M56.703,13.679c0,3.899,3.161,7.06,7.06,7.06h13.679L56.703,0V13.679z"/>
	</g>
	<g>
		<path fill="#3FA9F5" d="M11.897,122.881c0,0.501-0.387,0.889-0.866,0.889c-0.501,0-0.889-0.387-0.889-0.889v-1.595
			c-0.957,1.413-2.347,2.621-4.513,2.621c-2.826,0-5.63-2.234-5.63-6.108v-0.046c0-3.852,2.803-6.131,5.63-6.131
			c2.188,0,3.601,1.185,4.513,2.507v-6.336c0-0.501,0.365-0.889,0.866-0.889c0.501,0,0.889,0.387,0.889,0.889V122.881z
			 M1.801,117.73v0.046c0,2.781,1.937,4.558,4.148,4.558c2.188,0,4.262-1.846,4.262-4.558v-0.046c0-2.712-2.074-4.536-4.262-4.536
			C3.669,113.194,1.801,114.881,1.801,117.73z"/>
		<path fill="#3FA9F5" d="M14.239,117.821v-0.046c0-3.328,2.598-6.154,6.154-6.154c3.533,0,6.131,2.781,6.131,6.108v0.046
			c0,3.328-2.621,6.154-6.176,6.154C16.815,123.929,14.239,121.149,14.239,117.821z M24.723,117.821v-0.046
			c0-2.53-1.892-4.604-4.376-4.604c-2.553,0-4.308,2.074-4.308,4.558v0.046c0,2.53,1.869,4.581,4.353,4.581
			C22.946,122.357,24.723,120.305,24.723,117.821z"/>
		<path fill="#3FA9F5" d="M29.18,120.533v-7.111h-0.957c-0.41,0-0.775-0.365-0.775-0.775c0-0.433,0.365-0.775,0.775-0.775h0.957
			v-2.781c0-0.479,0.365-0.889,0.866-0.889c0.479,0,0.889,0.41,0.889,0.889v2.781h3.054c0.433,0,0.798,0.365,0.798,0.775
			c0,0.433-0.365,0.775-0.798,0.775h-3.054v6.883c0,1.436,0.798,1.96,1.983,1.96c0.615,0,0.934-0.16,1.071-0.16
			c0.41,0,0.752,0.342,0.752,0.752c0,0.319-0.205,0.57-0.501,0.684c-0.501,0.205-1.048,0.319-1.732,0.319
			C30.616,123.861,29.18,122.926,29.18,120.533z"/>
		<path fill="#3FA9F5" d="M37.864,113.422h-0.957c-0.433,0-0.752-0.342-0.752-0.775c0-0.41,0.342-0.752,0.752-0.752h0.957v-1.026
			c0-1.345,0.365-2.37,1.026-3.031c0.593-0.593,1.459-0.912,2.53-0.912c0.57,0,1.003,0.046,1.39,0.137
			c0.342,0.068,0.638,0.365,0.638,0.752c0,0.456-0.387,0.798-0.843,0.752c-0.296-0.046-0.615-0.114-0.957-0.114
			c-1.367,0-2.051,0.82-2.051,2.507v0.957h3.054c0.433,0,0.775,0.319,0.775,0.752c0,0.41-0.342,0.752-0.775,0.752h-3.031v9.458
			c0,0.479-0.365,0.889-0.866,0.889c-0.501,0-0.889-0.41-0.889-0.889V113.422z M45.846,108.18c0-0.57,0.456-0.934,1.026-0.934
			c0.593,0,1.048,0.365,1.048,0.934v0.296c0,0.547-0.456,0.934-1.048,0.934c-0.57,0-1.026-0.387-1.026-0.934V108.18z
			 M46.006,112.647c0-0.479,0.387-0.889,0.866-0.889c0.501,0,0.889,0.387,0.889,0.889v10.233c0,0.501-0.365,0.889-0.866,0.889
			c-0.501,0-0.889-0.387-0.889-0.889V112.647z"/>
		<path fill="#3FA9F5" d="M51.174,107.793c0-0.479,0.388-0.889,0.866-0.889c0.501,0,0.889,0.41,0.889,0.889v15.088
			c0,0.501-0.365,0.889-0.866,0.889c-0.501,0-0.889-0.387-0.889-0.889V107.793z"/>
		<path fill="#3FA9F5" d="M61.59,123.929c-3.236,0-5.88-2.484-5.88-6.131v-0.046c0-3.396,2.393-6.131,5.652-6.131
			c3.487,0,5.47,2.849,5.47,5.971c0,0.479-0.388,0.82-0.821,0.82h-8.524c0.251,2.553,2.051,3.988,4.148,3.988
			c1.459,0,2.53-0.57,3.396-1.367c0.137-0.114,0.296-0.205,0.501-0.205c0.433,0,0.775,0.342,0.775,0.752
			c0,0.205-0.091,0.41-0.273,0.57C64.917,123.223,63.595,123.929,61.59,123.929z M65.077,117.115
			c-0.182-2.142-1.413-4.011-3.761-4.011c-2.051,0-3.601,1.709-3.829,4.011H65.077z"/>
		<path fill="#3FA9F5" d="M68.724,122.402c-0.159-0.114-0.319-0.342-0.319-0.638c0-0.41,0.342-0.752,0.775-0.752
			c0.159,0,0.319,0.046,0.433,0.137c1.208,0.82,2.461,1.253,3.738,1.253c1.413,0,2.439-0.729,2.439-1.869v-0.046
			c0-1.185-1.39-1.641-2.94-2.074c-1.846-0.524-3.897-1.162-3.897-3.328v-0.046c0-2.028,1.687-3.373,4.011-3.373
			c1.254,0,2.621,0.387,3.761,1.003c0.228,0.137,0.433,0.387,0.433,0.729c0,0.41-0.342,0.752-0.775,0.752
			c-0.159,0-0.296-0.046-0.387-0.091c-1.003-0.57-2.074-0.912-3.077-0.912c-1.39,0-2.279,0.729-2.279,1.709v0.046
			c0,1.117,1.459,1.55,3.031,2.028c1.823,0.547,3.783,1.254,3.783,3.373v0.046c0,2.233-1.846,3.533-4.194,3.533
			C71.709,123.884,70,123.314,68.724,122.402z"/>
	</g>
</g>
</svg>
